# xmcd
#
# Track frame offsets:
#	182
#	13907
#	25900
#	39715
#	51987
#	64172
#	75450
#	88017
#	98590
#	108957
#	123825
#	137370
#
# Disc length: 2013 seconds
# Revision: 3
# Processed by: cddbd v1.5.2PL0 Copyright (c) Steve Scherf et al.
# Submitted via: dBpowerAMP V12.0
#
DISCID=9207db0c
DTITLE=Chet Atkins - Chet Atkins 36 All-Time Greatest Hits disc 1
DYEAR=1998
DGENRE=Country
TTITLE0=Someday My Prince Will Come
TTITLE1=My Funny Valentine
TTITLE2=So Rare
TTITLE3=Wabash Cannon Ball
TTITLE4=Take Five
TTITLE5=I Love Paris
TTITLE6=Rocky Top
TTITLE7=Back Home Again in Indiana
TTITLE8=After Midnight
TTITLE9=Abilene (Performed by the Nashville String MacHine)
TTITLE10=Unchained Melody
TTITLE11=How High the Moon
EXTD=
EXTT0=
EXTT1=
EXTT2=
EXTT3=
EXTT4=
EXTT5=
EXTT6=
EXTT7=
EXTT8=
EXTT9=
EXTT10=
EXTT11=
PLAYORDER=
